<svg xmlns="http://www.w3.org/2000/svg" x="0px" y="0px"
width="50" height="50"
viewBox="0 0 172 172"
style=" fill:#000000;"><g fill="none" fill-rule="nonzero" stroke="none" stroke-width="1" stroke-linecap="butt" stroke-linejoin="miter" stroke-miterlimit="10" stroke-dasharray="" stroke-dashoffset="0" font-family="none" font-weight="none" font-size="none" text-anchor="none" style="mix-blend-mode: normal"><path d="M0,172v-172h172v172z" fill="none"></path><g fill="#ffffff"><path d="M86,21.5c-35.56738,0 -64.5,28.93262 -64.5,64.5c0,35.56739 28.93262,64.5 64.5,64.5c35.56739,0 64.5,-28.93261 64.5,-64.5c0,-35.56738 -28.93261,-64.5 -64.5,-64.5zM86,32.25c29.75146,0 53.75,23.99854 53.75,53.75c0,29.75146 -23.99854,53.75 -53.75,53.75c-29.75146,0 -53.75,-23.99854 -53.75,-53.75c0,-29.75146 23.99854,-53.75 53.75,-53.75zM80.625,43v48.375h37.625v-10.75h-26.875v-37.625z"></path></g></g></svg>
  